# xmcd
#
# Track frame offsets: 
#        150
#        24289
#        41109
#        53695
#        76085
#        94064
#        110481
#        120900
#        134698
#        151121
#        164733
#
# Disc length: 2780 seconds
#
# Revision: 5
# Processed by: cddbd v1.5.2PL0 Copyright (c) Steve Scherf et al.
# Submitted via: ExactAudioCopy v1.2
#
DISCID=820ada0b
DTITLE=Rob Zombie - Hellbilly Deluxe 2
DYEAR=2010
DGENRE=Metal
TTITLE0=Jesus Frankenstein
TTITLE1=Sick Bubblegum
TTITLE2=What?
TTITLE3=Mars Needs Women
TTITLE4=Werewolf, Baby!
TTITLE5=Virgin Witch
TTITLE6=Death and Destiny Inside the Dream Factory
TTITLE7=Burn
TTITLE8=Cease to Exist
TTITLE9=Werewolf Women of the SS
TTITLE10=The Man Who Laughs
EXTD=YEAR: 2010
EXTT0=
EXTT1=
EXTT2=
EXTT3=
EXTT4=
EXTT5=
EXTT6=
EXTT7=
EXTT8=
EXTT9=
EXTT10=
PLAYORDER=
